{
  "accessors": [
    {
      "bufferView": 3,
      "componentType": 5126,
      "count": 41713,
      "max": [
        19.780277252197266,
        19.780223846435547,
        0.08172757923603058
      ],
      "min": [
        -19.780288696289063,
        -19.78034210205078,
        -0.07908742129802704
      ],
      "type": "VEC3"
    },
    {
      "bufferView": 3,
      "byteOffset": 500556,
      "componentType": 5126,
      "count": 41713,
      "max": [
        1.0,
        1.0,
        1.0
      ],
      "min": [
        -1.0,
        -1.0,
        -1.0
      ],
      "type": "VEC3"
    },
    {
      "bufferView": 2,
      "componentType": 5126,
      "count": 41713,
      "max": [
        0.8750000596046448,
        1.0
      ],
      "min": [
        0.125,
        0.0
      ],
      "type": "VEC2"
    },
    {
      "bufferView": 1,
      "componentType": 5125,
      "count": 171336,
      "type": "SCALAR"
    },
    {
      "bufferView": 3,
      "byteOffset": 1001112,
      "componentType": 5126,
      "count": 12186,
      "max": [
        6.167683124542236,
        2.362391710281372,
        19.698707580566406
      ],
      "min": [
        -6.148622989654541,
        0.13865907490253448,
        16.984405517578125
      ],
      "type": "VEC3"
    },
    {
      "bufferView": 3,
      "byteOffset": 1147344,
      "componentType": 5126,
      "count": 12186,
      "max": [
        0.9999930262565613,
        1.0,
        0.9999799132347107
      ],
      "min": [
        -0.9999929070472717,
        -1.0,
        -0.999980092048645
      ],
      "type": "VEC3"
    },
    {
      "bufferView": 2,
      "byteOffset": 333704,
      "componentType": 5126,
      "count": 12186,
      "max": [
        0.9884952902793884,
        0.9935749173164368
      ],
      "min": [
        0.000377655029296875,
        0.0003776689700316638
      ],
      "type": "VEC2"
    },
    {
      "bufferView": 1,
      "byteOffset": 685344,
      "componentType": 5125,
      "count": 45762,
      "type": "SCALAR"
    },
    {
      "bufferView": 3,
      "byteOffset": 1293576,
      "componentType": 5126,
      "count": 3685,
      "max": [
        3.4825122356414795,
        5.766223430633545,
        18.30424690246582
      ],
      "min": [
        -4.237001419067383,
        -7.387590408325195,
        -0.5562981963157654
      ],
      "type": "VEC3"
    },
    {
      "bufferView": 3,
      "byteOffset": 1337796,
      "componentType": 5126,
      "count": 3685,
      "max": [
        1.0,
        1.0,
        1.0
      ],
      "min": [
        -1.0,
        -1.0,
        -1.0
      ],
      "type": "VEC3"
    },
    {
      "bufferView": 2,
      "byteOffset": 431192,
      "componentType": 5126,
      "count": 3685,
      "max": [
        0.995442271232605,
        1.0
      ],
      "min": [
        0.0,
        0.0
      ],
      "type": "VEC2"
    },
    {
      "bufferView": 2,
      "byteOffset": 460672,
      "componentType": 5126,
      "count": 3685,
      "max": [
        0.995442271232605,
        1.0
      ],
      "min": [
        0.0,
        0.0
      ],
      "type": "VEC2"
    },
    {
      "bufferView": 1,
      "byteOffset": 868392,
      "componentType": 5125,
      "count": 15048,
      "type": "SCALAR"
    },
    {
      "bufferView": 5,
      "componentType": 5126,
      "count": 3,
      "max": [
        100.0,
        0.0,
        0.0,
        0.0,
        0.0,
        100.0,
        0.0,
        0.0,
        0.0,
        0.0,
        100.0,
        0.0,
        0.0,
        0.0,
        0.0,
        1.0
      ],
      "min": [
        1.0,
        0.0,
        0.0,
        0.0,
        0.0,
        1.0,
        0.0,
        0.0,
        0.0,
        0.0,
        1.0,
        0.0,
        0.0,
        0.0,
        0.0,
        1.0
      ],
      "type": "MAT4"
    },
    {
      "bufferView": 0,
      "componentType": 5123,
      "count": 12186,
      "type": "VEC4"
    },
    {
      "bufferView": 4,
      "componentType": 5126,
      "count": 12186,
      "max": [
        1.0,
        0.0,
        0.0,
        0.0
      ],
      "min": [
        1.0,
        0.0,
        0.0,
        0.0
      ],
      "type": "VEC4"
    },
    {
      "bufferView": 6,
      "componentType": 5126,
      "count": 498,
      "max": [
        10.375
      ],
      "min": [
        0.0
      ],
      "type": "SCALAR"
    },
    {
      "bufferView": 7,
      "componentType": 5126,
      "count": 498,
      "max": [
        0.7071068286895752,
        0.7071017622947693,
        0.7071016430854797,
        0.7071067094802856
      ],
      "min": [
        -0.49905282258987427,
        -0.4984205365180969,
        -0.49842044711112976,
        -0.4990527629852295
      ],
      "type": "VEC4"
    }
  ],
  "animations": [
    {
      "channels": [
        {
          "sampler": 0,
          "target": {
            "node": 12,
            "path": "rotation"
          }
        }
      ],
      "name": "Armature|ArmatureAction.002",
      "samplers": [
        {
          "input": 16,
          "interpolation": "LINEAR",
          "output": 17
        }
      ]
    }
  ],
  "asset": {
    "extras": {
      "author": "ArbitraryCanary (https://sketchfab.com/ArbitraryCanary)",
      "license": "CC-BY-4.0 (http://creativecommons.org/licenses/by/4.0/)",
      "source": "https://sketchfab.com/3d-models/wooden-train-ca04431879454045aebb7089aa67d5b0",
      "title": "Wooden Train"
    },
    "generator": "Sketchfab-12.67.0",
    "version": "2.0"
  },
  "bufferViews": [
    {
      "buffer": 0,
      "byteLength": 97488,
      "byteStride": 8,
      "name": "shortBufferViews",
      "target": 34962
    },
    {
      "buffer": 0,
      "byteLength": 928584,
      "byteOffset": 97488,
      "name": "floatBufferViews",
      "target": 34963
    },
    {
      "buffer": 0,
      "byteLength": 490152,
      "byteOffset": 1026072,
      "byteStride": 8,
      "name": "floatBufferViews",
      "target": 34962
    },
    {
      "buffer": 0,
      "byteLength": 1382016,
      "byteOffset": 1516224,
      "byteStride": 12,
      "name": "floatBufferViews",
      "target": 34962
    },
    {
      "buffer": 0,
      "byteLength": 194976,
      "byteOffset": 2898240,
      "byteStride": 16,
      "name": "floatBufferViews",
      "target": 34962
    },
    {
      "buffer": 0,
      "byteLength": 192,
      "byteOffset": 3093216,
      "name": "floatBufferViews"
    },
    {
      "buffer": 0,
      "byteLength": 1992,
      "byteOffset": 3093408,
      "name": "floatBufferViews"
    },
    {
      "buffer": 0,
      "byteLength": 7968,
      "byteOffset": 3095400,
      "byteStride": 16,
      "name": "floatBufferViews"
    }
  ],
  "buffers": [
    {
      "byteLength": 3103368,
      "uri": "scene.bin"
    }
  ],
  "images": [
    {
      "uri": "textures/Wood_baseColor.png"
    },
    {
      "uri": "textures/Wood_metallicRoughness.png"
    },
    {
      "uri": "textures/Tree_baseColor.png"
    },
    {
      "uri": "textures/Tree_metallicRoughness.png"
    }
  ],
  "materials": [
    {
      "doubleSided": true,
      "name": "Wood_Proc",
      "pbrMetallicRoughness": {
        "baseColorFactor": [
          0.024992599999999986,
          0.0033415699999999955,
          0.0028349099999999995,
          1.0
        ],
        "metallicFactor": 0.0,
        "roughnessFactor": 0.13547385829548425
      }
    },
    {
      "doubleSided": true,
      "name": "Wood",
      "pbrMetallicRoughness": {
        "baseColorTexture": {
          "index": 0
        },
        "metallicFactor": 0.0,
        "metallicRoughnessTexture": {
          "index": 1
        }
      }
    },
    {
      "doubleSided": true,
      "name": "Tree",
      "pbrMetallicRoughness": {
        "baseColorTexture": {
          "index": 2
        },
        "metallicFactor": 0.0,
        "metallicRoughnessTexture": {
          "index": 3
        }
      }
    }
  ],
  "meshes": [
    {
      "name": "track_Wood Proc_0",
      "primitives": [
        {
          "attributes": {
            "NORMAL": 1,
            "POSITION": 0,
            "TEXCOORD_0": 2
          },
          "indices": 3,
          "material": 0,
          "mode": 4
        }
      ]
    },
    {
      "name": "Cube.004_Wood_0",
      "primitives": [
        {
          "attributes": {
            "JOINTS_0": 14,
            "NORMAL": 5,
            "POSITION": 4,
            "TEXCOORD_0": 6,
            "TEXCOORD_1": 6,
            "WEIGHTS_0": 15
          },
          "indices": 7,
          "material": 1,
          "mode": 4
        }
      ]
    },
    {
      "name": "low_Tree_0",
      "primitives": [
        {
          "attributes": {
            "NORMAL": 9,
            "POSITION": 8,
            "TEXCOORD_0": 10,
            "TEXCOORD_1": 11
          },
          "indices": 12,
          "material": 2,
          "mode": 4
        }
      ]
    }
  ],
  "nodes": [
    {
      "children": [
        1
      ],
      "matrix": [
        1.0,
        0.0,
        0.0,
        0.0,
        0.0,
        2.220446049250313e-16,
        -1.0,
        0.0,
        0.0,
        1.0,
        2.220446049250313e-16,
        0.0,
        0.0,
        0.0,
        0.0,
        1.0
      ],
      "name": "Sketchfab_model"
    },
    {
      "children": [
        2
      ],
      "matrix": [
        1.0,
        0.0,
        0.0,
        0.0,
        0.0,
        0.0,
        1.0,
        0.0,
        0.0,
        -1.0,
        0.0,
        0.0,
        0.0,
        0.0,
        0.0,
        1.0
      ],
      "name": "446a610b202a48ae993cbeee09cb5d11.fbx"
    },
    {
      "children": [
        3
      ],
      "name": "Object_2"
    },
    {
      "children": [
        4,
        5,
        7,
        14
      ],
      "name": "RootNode"
    },
    {
      "name": "Cube.004",
      "rotation": [
        -0.7071068286895752,
        0.0,
        0.0,
        0.7071067094802856
      ],
      "scale": [
        100.0,
        100.0,
        100.0
      ],
      "translation": [
        0.0,
        7.263805866241455,
        0.0
      ]
    },
    {
      "children": [
        6
      ],
      "name": "track",
      "rotation": [
        -0.7071068286895752,
        0.0,
        0.0,
        0.7071067094802856
      ],
      "scale": [
        100.0,
        100.0,
        100.0
      ],
      "translation": [
        0.0,
        7.263805866241455,
        0.0
      ]
    },
    {
      "mesh": 0,
      "name": "track_Wood Proc_0"
    },
    {
      "children": [
        8
      ],
      "name": "Armature",
      "rotation": [
        -0.7071068286895752,
        0.0,
        0.0,
        0.7071067094802856
      ],
      "scale": [
        100.0,
        100.0,
        100.0
      ]
    },
    {
      "children": [
        9,
        11,
        10
      ],
      "name": "Object_8"
    },
    {
      "children": [
        12
      ],
      "name": "_rootJoint"
    },
    {
      "matrix": [
        100.0,
        0.0,
        0.0,
        0.0,
        0.0,
        6.123233995736766e-15,
        -100.0,
        0.0,
        0.0,
        100.0,
        6.123233995736766e-15,
        0.0,
        0.0,
        7.263805717229843,
        0.0,
        1.0
      ],
      "name": "Object_10"
    },
    {
      "mesh": 1,
      "name": "Object_11",
      "skin": 0
    },
    {
      "children": [
        13
      ],
      "name": "Bone_00",
      "rotation": [
        0.7071068286895752,
        0.0,
        0.0,
        0.7071067094802856
      ]
    },
    {
      "name": "Bone_end_01",
      "translation": [
        0.0,
        1.0,
        0.0
      ]
    },
    {
      "children": [
        15
      ],
      "name": "low",
      "rotation": [
        -0.7071068286895752,
        0.0,
        0.0,
        0.7071067094802856
      ],
      "scale": [
        100.0,
        100.0,
        100.0
      ],
      "translation": [
        0.0,
        55.806732177734375,
        0.0
      ]
    },
    {
      "mesh": 2,
      "name": "low_Tree_0"
    }
  ],
  "samplers": [
    {
      "magFilter": 9729,
      "minFilter": 9987,
      "wrapS": 10497,
      "wrapT": 10497
    }
  ],
  "scene": 0,
  "scenes": [
    {
      "name": "Sketchfab_Scene",
      "nodes": [
        0
      ]
    }
  ],
  "skins": [
    {
      "inverseBindMatrices": 13,
      "joints": [
        9,
        12,
        13
      ],
      "skeleton": 9
    }
  ],
  "textures": [
    {
      "sampler": 0,
      "source": 0
    },
    {
      "sampler": 0,
      "source": 1
    },
    {
      "sampler": 0,
      "source": 2
    },
    {
      "sampler": 0,
      "source": 3
    }
  ]
}
