{
	"asset":{
		"generator":"Khronos glTF Blender I/O v4.5.47",
		"version":"2.0"
	},
	"scene":0,
	"scenes":[
		{
			"name":"Scene",
			"nodes":[
				0
			]
		}
	],
	"nodes":[
		{
			"mesh":0,
			"name":"tripo_node_5323afc9-96f8-4457-ba2e-b8edf104078d",
			"rotation":[
				0,
				-0.7280629873275757,
				0,
				0.6855102181434631
			],
			"scale":[
				13.56494140625,
				13.56494140625,
				13.56494140625
			],
			"translation":[
				0,
				4.899533748626709,
				0
			]
		}
	],
	"animations":[
		{
			"channels":[
				{
					"sampler":0,
					"target":{
						"node":0,
						"path":"translation"
					}
				}
			],
			"name":"tripo_node_5323afc9-96f8-4457-ba2e-b8edf104078dAction",
			"samplers":[
				{
					"input":6,
					"interpolation":"LINEAR",
					"output":7
				}
			]
		}
	],
	"materials":[
		{
			"name":"tripo_mat_5323afc9-96f8-4457-ba2e-b8edf104078d",
			"pbrMetallicRoughness":{
				"baseColorTexture":{
					"index":0
				},
				"metallicFactor":0,
				"roughnessFactor":0.8999999761581421
			}
		}
	],
	"meshes":[
		{
			"name":"tripo_mesh_5323afc9-96f8-4457-ba2e-b8edf104078d",
			"primitives":[
				{
					"attributes":{
						"POSITION":0,
						"NORMAL":1,
						"TEXCOORD_0":2,
						"COLOR_0":3,
						"COLOR_1":4
					},
					"indices":5,
					"material":0
				}
			]
		}
	],
	"textures":[
		{
			"sampler":0,
			"source":0
		}
	],
	"images":[
		{
			"mimeType":"image/jpeg",
			"name":"3d\u043c\u043e\u0434\u0435\u043b\u044c\u043f\u0440\u0438\u0432\u0438\u0434\u0430\u0437\u043c\u0435\u0447\u0435\u043c_basecolor",
			"uri":"3d%D0%BC%D0%BE%D0%B4%D0%B5%D0%BB%D1%8C%D0%BF%D1%80%D0%B8%D0%B2%D0%B8%D0%B4%D0%B0%D0%B7%D0%BC%D0%B5%D1%87%D0%B5%D0%BC_basecolor.jpg"
		}
	],
	"accessors":[
		{
			"bufferView":0,
			"componentType":5126,
			"count":510081,
			"max":[
				0.26483154296875,
				0.5,
				0.389678955078125
			],
			"min":[
				-0.26885986328125,
				-0.49993896484375,
				-0.38916015625
			],
			"type":"VEC3"
		},
		{
			"bufferView":1,
			"componentType":5126,
			"count":510081,
			"type":"VEC3"
		},
		{
			"bufferView":2,
			"componentType":5126,
			"count":510081,
			"type":"VEC2"
		},
		{
			"bufferView":3,
			"componentType":5121,
			"count":510081,
			"normalized":true,
			"type":"VEC4"
		},
		{
			"bufferView":4,
			"componentType":5123,
			"count":510081,
			"normalized":true,
			"type":"VEC4"
		},
		{
			"bufferView":5,
			"componentType":5125,
			"count":510540,
			"type":"SCALAR"
		},
		{
			"bufferView":6,
			"componentType":5126,
			"count":40,
			"max":[
				2.0416666666666665
			],
			"min":[
				0.4166666666666667
			],
			"type":"SCALAR"
		},
		{
			"bufferView":7,
			"componentType":5126,
			"count":40,
			"type":"VEC3"
		}
	],
	"bufferViews":[
		{
			"buffer":0,
			"byteLength":6120972,
			"byteOffset":0,
			"target":34962
		},
		{
			"buffer":0,
			"byteLength":6120972,
			"byteOffset":6120972,
			"target":34962
		},
		{
			"buffer":0,
			"byteLength":4080648,
			"byteOffset":12241944,
			"target":34962
		},
		{
			"buffer":0,
			"byteLength":2040324,
			"byteOffset":16322592,
			"target":34962
		},
		{
			"buffer":0,
			"byteLength":4080648,
			"byteOffset":18362916,
			"target":34962
		},
		{
			"buffer":0,
			"byteLength":2042160,
			"byteOffset":22443564,
			"target":34963
		},
		{
			"buffer":0,
			"byteLength":160,
			"byteOffset":24485724
		},
		{
			"buffer":0,
			"byteLength":480,
			"byteOffset":24485884
		}
	],
	"samplers":[
		{
			"magFilter":9729,
			"minFilter":9987
		}
	],
	"buffers":[
		{
			"byteLength":24486364,
			"uri":"ghost.bin"
		}
	]
}
